<?xml version="1.0" encoding="utf-8"?>
<!-- Generator: Adobe Illustrator 21.0.0, SVG Export Plug-In . SVG Version: 6.00 Build 0)  -->
<svg version="1.1" id="Layer_1" xmlns="http://www.w3.org/2000/svg" xmlns:xlink="http://www.w3.org/1999/xlink" x="0px" y="0px"
	 viewBox="0 0 50 50" style="enable-background:new 0 0 50 50;" xml:space="preserve">
<style type="text/css">
	.st0{fill:#F77F00;}
	.st1{fill:#003049;}
</style>
<g>
	<path class="st0" d="M44,16.6c-1.5-0.5-3.1,0.3-3.6,1.8c-0.1,0.4,0,0.8,0.3,1.1l0,0c0.6,0.6,1.3,1,2,1.2s1.5,0.3,2.3,0.2
		c0.4-0.1,0.7-0.3,0.9-0.7C46.3,18.7,45.5,17.1,44,16.6z"/>
	<path class="st0" d="M43.3,15.7c0.8,0,1.3-0.9,1.4-1.8c0.1-0.6-0.1-1.2-0.4-1.6c-0.2-0.2-0.5-0.3-0.7-0.3c-0.8,0-1.3,0.9-1.4,1.8
		C42.1,15.1,42.7,15.7,43.3,15.7z"/>
	<path class="st0" d="M45.1,16.3c0.5,0.4,1.4,0.2,2-0.9c0.4-0.8,0.6-1.8-0.1-2.3c-0.2-0.2-0.5-0.2-0.8-0.2c-0.5,0.1-0.9,0.5-1.2,1
		C44.6,14.8,44.5,15.8,45.1,16.3z"/>
	<path class="st0" d="M40.8,16.2c0.6-0.1,1.1-0.8,0.9-1.7c-0.2-0.8-0.9-1.4-1.5-1.2c-0.7,0.1-1,1-0.9,1.7
		C39.5,15.7,40.1,16.4,40.8,16.2z"/>
	<path class="st0" d="M49,16.1c-0.5-0.5-1.3-0.4-2,0.1c-0.6,0.5-0.8,1.4-0.3,1.9s1.4,0.4,2-0.1S49.5,16.6,49,16.1z"/>
</g>
<g>
	<path class="st0" d="M28.4,26.2c0.4,0,0.5,0.3,0.3,0.6c-1,1.3-2.6,2.1-4.3,2.1c-3.1,0-5.6-2.5-5.6-5.5c0-2.9,2.5-5.4,5.6-5.4
		c1.7,0,3.3,0.8,4.3,2c0.3,0.3,0.1,0.6-0.3,0.6H28c-0.3,0-0.4-0.1-0.6-0.3c-0.8-0.8-1.9-1.3-3.1-1.3c-2.5,0-4.4,2-4.4,4.3
		c0,2.5,2,4.4,4.4,4.4c1.2,0,2.4-0.5,3.1-1.3c0.2-0.2,0.3-0.3,0.6-0.3L28.4,26.2L28.4,26.2z"/>
	<path class="st0" d="M30.2,25.4c0-1.9,1.5-3.4,3.4-3.4c1,0,1.9,0.5,2.5,1.2v-0.6c0-0.3,0.2-0.5,0.5-0.5l0,0c0.3,0,0.5,0.2,0.5,0.5
		v5.6c0,0.3-0.2,0.5-0.5,0.5l0,0c-0.3,0-0.5-0.2-0.5-0.5v-0.6c-0.6,0.7-1.5,1.2-2.5,1.2C31.7,28.9,30.2,27.3,30.2,25.4z M36,25.4
		c0-1.3-1.1-2.4-2.4-2.4c-1.3,0-2.3,1.1-2.3,2.4s1,2.4,2.3,2.4C34.9,27.9,36,26.7,36,25.4z"/>
	<path class="st0" d="M40.2,23c0.4-0.5,1-0.8,1.7-1c0.3-0.1,0.5,0.1,0.5,0.4l0,0c0,0.3-0.2,0.4-0.5,0.5c-1,0.1-1.8,0.8-1.8,2V28
		c0,0.3-0.2,0.5-0.5,0.5l0,0c-0.3,0-0.5-0.2-0.5-0.5v-5.6c0-0.3,0.2-0.5,0.5-0.5l0,0c0.3,0,0.5,0.2,0.5,0.5L40.2,23L40.2,23z"/>
	<path class="st0" d="M50,25.7c0,0.2-0.2,0.2-0.5,0.2h-5.2c0.2,1.1,1.1,2,2.3,2c0.6,0,1.2-0.3,1.6-0.6c0.2-0.2,0.3-0.3,0.6-0.3H49
		c0.4,0,0.6,0.3,0.3,0.6c-0.6,0.8-1.6,1.3-2.7,1.3c-1.9,0-3.4-1.6-3.4-3.4c0-1.9,1.5-3.4,3.4-3.4s3.4,1.5,3.4,3.4V25.7z M44.3,24.9
		h4.6c-0.2-1.1-1.1-1.9-2.3-1.9C45.4,23,44.5,23.9,44.3,24.9z"/>
</g>
<g>
	<path class="st1" d="M9.9,22.3c0.3,0,0.4,0.2,0.3,0.5l-2,5.5c-0.1,0.3-0.3,0.4-0.5,0.4H7.4c-0.3,0-0.4-0.1-0.5-0.4l-1.7-4.7
		l-1.7,4.7c-0.1,0.2-0.3,0.4-0.5,0.4H2.6c-0.3,0-0.4-0.1-0.5-0.4l-2-5.5c-0.1-0.3,0-0.5,0.4-0.5h0.1c0.3,0,0.4,0.1,0.5,0.4l1.7,4.7
		l1.7-4.7c0.1-0.2,0.3-0.4,0.5-0.4h0.2c0.3,0,0.4,0.1,0.5,0.4l1.7,4.7l1.7-4.7c0.1-0.2,0.3-0.4,0.5-0.4C9.6,22.3,9.9,22.3,9.9,22.3z
		"/>
	<path class="st1" d="M17.6,25.8c0,0.2-0.2,0.2-0.5,0.2H12c0.2,1.1,1.1,1.9,2.3,1.9c0.6,0,1.2-0.2,1.5-0.6c0.2-0.2,0.3-0.3,0.6-0.3
		h0.2c0.4,0,0.6,0.3,0.3,0.6c-0.6,0.8-1.6,1.3-2.6,1.3c-1.8,0-3.3-1.6-3.3-3.4s1.5-3.3,3.3-3.3s3.3,1.5,3.3,3.3
		C17.6,25.5,17.6,25.8,17.6,25.8z M12,25.1h4.5c-0.2-1.1-1.1-1.9-2.3-1.9S12.2,24,12,25.1z"/>
</g>
</svg>
