<?xml version="1.0" encoding="utf-8"?>
<!-- Generator: Adobe Illustrator 21.0.0, SVG Export Plug-In . SVG Version: 6.00 Build 0)  -->
<svg version="1.1" id="Layer_1" xmlns="http://www.w3.org/2000/svg" xmlns:xlink="http://www.w3.org/1999/xlink" x="0px" y="0px"
	 viewBox="0 0 50 50" style="enable-background:new 0 0 50 50;" xml:space="preserve">
<style type="text/css">
	.st0{fill:#BE9463;}
</style>
<path class="st0" d="M6.7,44.5h4.7v0.1v1.3H5.1v-8.4h6.1v1.3H6.7v2.2h4.1v1.3H6.7V44.5z M16.6,37.5H15v8.4h6v-1.4h-4.4V37.5z
	 M29.1,38.8h4.4v7.1H35v-8.4h-6C29.1,37.4,29.1,38.8,29.1,38.8z M24,45.9h1.6v-8.4H24V45.9z M38.8,37.6v1.3h4.5V41h-4.1v1.3h4.1v2.3
	v0.2h-4.7V46h6.3v-8.4H38.8z M46.9,15.8c0.4,0.4,0.4,1,0.1,1.6l-8.6,15c-0.1,0.4-0.7,0.7-1.2,0.7H12.8c-0.4,0-0.9-0.3-1.2-0.7
	L3,17.4c-0.3-0.4-0.3-1.2,0.1-1.6s1-0.6,1.6-0.3l12.7,5.7L23.9,10c0.1-0.4,0.7-0.7,1.2-0.7S26,9.6,26.3,10l6.4,11.2l12.5-5.8
	C45.9,15.2,46.5,15.3,46.9,15.8z M19.9,22.3l5,2.4l5.2-2.4l-5.2-8.8L19.9,22.3z M13.4,29.9l8.1-3.7L7.7,19.9L13.4,29.9z M42.5,19.7
	l-16.8,7.7l-6.2,2.8h17L42.5,19.7z M24.9,7.5c1,0,1.8-0.7,1.8-1.8S26,4,24.9,4s-1.8,0.7-1.8,1.8S23.9,7.5,24.9,7.5z M3.5,12.5
	c0-1-0.7-1.8-1.8-1.8S0,11.5,0,12.5s0.7,1.8,1.8,1.8C2.8,14.3,3.5,13.5,3.5,12.5z M48.2,10.7c-1,0-1.8,0.7-1.8,1.8s0.7,1.8,1.8,1.8
	s1.8-0.7,1.8-1.8C50,11.5,49.3,10.7,48.2,10.7z"/>
</svg>
