<?xml version="1.0" encoding="utf-8"?>
<!-- Generator: Adobe Illustrator 21.0.0, SVG Export Plug-In . SVG Version: 6.00 Build 0)  -->
<svg version="1.1" id="Layer_1" xmlns="http://www.w3.org/2000/svg" xmlns:xlink="http://www.w3.org/1999/xlink" x="0px" y="0px"
	 viewBox="0 0 50 50" style="enable-background:new 0 0 50 50;" xml:space="preserve">
<style type="text/css">
	.st0{fill:#F77F00;}
</style>
<path class="st0" d="M23.9,25.5c-5.6-1.9-11.6,1.1-13.5,6.7c-0.4,1.5,0,3,1.1,4.1l0,0c2.2,2.2,4.9,3.7,7.5,4.5s5.6,1.1,8.6,0.7
	c1.5-0.4,2.6-1.1,3.4-2.6C32.6,33.4,29.6,27.4,23.9,25.5z"/>
<path class="st0" d="M21.3,22.1c3,0,4.9-3.4,5.2-6.7c0.4-2.2-0.4-4.5-1.5-6c-0.7-0.7-1.9-1.1-2.6-1.1c-3,0-4.9,3.4-5.2,6.7
	C16.8,19.9,19.1,22.1,21.3,22.1z"/>
<path class="st0" d="M28.1,24.4c1.9,1.5,5.2,0.7,7.5-3.4c1.5-3,2.2-6.7-0.4-8.6c-0.7-0.7-1.9-0.7-3-0.7c-1.9,0.4-3.4,1.9-4.5,3.7
	C26.2,18.7,25.8,22.5,28.1,24.4z"/>
<path class="st0" d="M12,24c2.2-0.4,4.1-3,3.4-6.4c-0.7-3-3.4-5.2-5.6-4.5c-2.6,0.4-3.7,3.7-3.4,6.4C7.1,22.1,9.3,24.7,12,24z"/>
<path class="st0" d="M42.7,23.6c-1.9-1.9-4.9-1.5-7.5,0.4c-2.2,1.9-3,5.2-1.1,7.1c1.9,1.9,5.2,1.5,7.5-0.4
	C43.8,28.9,44.5,25.5,42.7,23.6z"/>
</svg>
