<?xml version="1.0" encoding="utf-8"?>
<!-- Generator: Adobe Illustrator 21.0.0, SVG Export Plug-In . SVG Version: 6.00 Build 0)  -->
<svg version="1.1" id="Layer_1" xmlns="http://www.w3.org/2000/svg" xmlns:xlink="http://www.w3.org/1999/xlink" x="0px" y="0px"
	 viewBox="0 0 50 50" style="enable-background:new 0 0 50 50;" xml:space="preserve">
<style type="text/css">
	.st0{fill:#BE9463;}
</style>
<path class="st0" d="M2,40.7h5.9v0.1v1.6H0V31.9h7.7v1.6H2v2.7h5.1v1.6H2V40.7z M14.4,31.9h-2v10.6h7.5v-1.7h-5.5V31.9z M30.1,33.5
	h5.5v8.9h2V31.8h-7.5C30.1,31.8,30.1,33.5,30.1,33.5z M23.7,42.5h2V31.9h-2V42.5z M42.3,32v1.6H48v2.7h-5.1v1.6H48v2.9V41h-5.9v1.6
	H50V32H42.3z M39.5,15.6c0.3,0.3,0.3,0.7,0.1,1.1l-5.8,10.2c-0.1,0.3-0.5,0.5-0.8,0.5H16.4c-0.3,0-0.6-0.2-0.8-0.5L9.8,16.7
	c-0.2-0.3-0.2-0.8,0.1-1.1s0.7-0.4,1.1-0.2l8.5,3.9l4.4-7.6c0.1-0.3,0.5-0.5,0.8-0.5s0.6,0.2,0.8,0.5l4.4,7.6l8.5-3.9
	C38.8,15.2,39.2,15.3,39.5,15.6z M21.2,20l3.4,1.6l3.5-1.6l-3.5-6L21.2,20z M16.8,25.2l5.5-2.5l-9.4-4.3L16.8,25.2z M36.5,18.3
	l-11.4,5.2l-4.2,1.9h11.5L36.5,18.3z M24.6,10c0.7,0,1.2-0.5,1.2-1.2s-0.5-1.2-1.2-1.2s-1.2,0.5-1.2,1.2S23.9,10,24.6,10z
	 M10.1,13.4c0-0.7-0.5-1.2-1.2-1.2s-1.2,0.5-1.2,1.2s0.5,1.2,1.2,1.2C9.6,14.6,10.1,14.1,10.1,13.4z M40.4,12.2
	c-0.7,0-1.2,0.5-1.2,1.2s0.5,1.2,1.2,1.2s1.2-0.5,1.2-1.2C41.6,12.7,41.1,12.2,40.4,12.2z"/>
</svg>
