<?xml version="1.0" encoding="utf-8"?>
<!-- Generator: Adobe Illustrator 21.0.0, SVG Export Plug-In . SVG Version: 6.00 Build 0)  -->
<svg version="1.1" id="Layer_1" xmlns="http://www.w3.org/2000/svg" xmlns:xlink="http://www.w3.org/1999/xlink" x="0px" y="0px"
	 viewBox="0 0 50 50" style="enable-background:new 0 0 50 50;" xml:space="preserve">
<style type="text/css">
	.st0{fill:#BE9463;}
</style>
<path class="st0" d="M2,45h5.9v0.1v1.6H0V36.2h7.7v1.6H2v2.7h5.1v1.6H2V45z M14.4,36.2h-2v10.6h7.5v-1.7h-5.5V36.2z M30.1,37.8h5.5
	v8.9h2V36.1h-7.5C30.1,36.1,30.1,37.8,30.1,37.8z M23.7,46.8h2V36.2h-2V46.8z M42.3,36.3v1.6H48v2.7h-5.1v1.6H48v2.9v0.2h-5.9v1.6
	H50V36.3H42.3z M46.9,15.6c0.4,0.4,0.4,1,0.1,1.6l-8.6,15c-0.1,0.4-0.7,0.7-1.2,0.7H12.8c-0.4,0-0.9-0.3-1.2-0.7l-8.6-15
	c-0.3-0.4-0.3-1.2,0.1-1.6s1-0.6,1.6-0.3L17.4,21l6.5-11.2c0.1-0.4,0.7-0.7,1.2-0.7s0.9,0.3,1.2,0.7L32.7,21l12.5-5.8
	C45.9,15,46.5,15.1,46.9,15.6z M19.9,22.1l5,2.4l5.2-2.4l-5.2-8.8L19.9,22.1z M13.4,29.7l8.1-3.7L7.7,19.7L13.4,29.7z M42.5,19.5
	l-16.8,7.7L19.5,30h17L42.5,19.5z M24.9,7.3c1,0,1.8-0.7,1.8-1.8S26,3.8,24.9,3.8s-1.8,0.7-1.8,1.8S23.9,7.3,24.9,7.3z M3.5,12.3
	c0-1-0.7-1.8-1.8-1.8S0,11.3,0,12.3s0.7,1.8,1.8,1.8C2.8,14.1,3.5,13.3,3.5,12.3z M48.2,10.5c-1,0-1.8,0.7-1.8,1.8s0.7,1.8,1.8,1.8
	s1.8-0.7,1.8-1.8C50,11.3,49.3,10.5,48.2,10.5z"/>
</svg>
